<svg width="1954" height="542" viewBox="0 0 1954 542" fill="none" xmlns="http://www.w3.org/2000/svg">
<path fill-rule="evenodd" clip-rule="evenodd" d="M200 71C89.543 71 0 160.543 0 271C0 300.596 6.42872 328.691 17.9659 353.965C53.4342 368.537 112.718 373.298 200.637 338.276C252.595 317.579 310.985 319.752 362.543 338.944C370.015 341.725 377.619 344.253 385.285 346.437C394.772 323.158 400 297.689 400 271C400 160.543 310.457 71 200 71ZM308 271C308 211.353 259.647 163 200 163C140.353 163 92 211.353 92 271H308ZM375.487 367.018C365.086 385.987 351.698 403.086 335.957 417.683C289.489 402.033 238.182 400.184 191.205 416.65C151.78 430.469 118.255 436.777 90.108 438.131C67.9098 423.505 48.7982 404.576 33.9609 382.531C75.8578 391.984 134.143 388.994 209.41 359.011C255.13 340.799 307.327 342.442 354.168 359.879C361.036 362.435 368.165 364.847 375.487 367.018ZM199.101 437.735C236.059 424.781 276.589 424.561 314.817 434.78C282.321 457.603 242.725 471 200 471C173.785 471 148.747 465.956 125.806 456.786C148.08 453.208 172.495 447.061 199.101 437.735Z" fill="white"/>
<path d="M1951.17 141.886V167.521H1819.23V250.064H1919.04V275.699H1819.23V374.136H1953.56V399.77H1788.81V141.886H1951.17Z" fill="white"/>
<path d="M1722.94 198.625L1692.52 207.683C1683.74 177.263 1665.51 162.053 1637.83 162.053C1620.74 162.053 1607.52 166.325 1598.18 174.87C1590.09 182.276 1586.05 191.903 1586.05 203.752C1586.05 218.107 1590.49 228.931 1599.38 236.222C1607.24 242.717 1620.68 248.356 1639.71 253.141L1650.82 256.388C1682.26 264.364 1703.57 274.959 1714.73 288.175C1723.51 298.657 1727.89 313.012 1727.89 331.241C1727.89 355.167 1719.23 373.738 1701.92 386.954C1686.19 398.803 1665.23 404.727 1639.03 404.727C1613.39 404.727 1592.43 398.518 1576.14 386.099C1561.78 375.162 1551.7 359.781 1545.89 339.957L1575.96 329.361C1580.29 346.907 1588.72 360.123 1601.26 369.01C1611.74 376.301 1624.1 379.947 1638.34 379.947C1658.96 379.947 1674.34 375.162 1684.48 365.592C1692.69 357.844 1696.79 347.533 1696.79 334.659C1696.79 319.962 1692.52 309.025 1683.97 301.847C1675.65 294.669 1660.67 288.232 1639.03 282.536L1628.77 279.459C1599.72 271.598 1579.78 261.287 1568.96 248.527C1560.07 237.931 1555.63 223.462 1555.63 205.119C1555.63 184.725 1563.49 168.148 1579.21 155.388C1594.02 143.311 1613.33 137.273 1637.15 137.273C1681.12 137.273 1709.72 157.724 1722.94 198.625Z" fill="white"/>
<path d="M1488.55 141.886V399.77H1458.14V141.886H1488.55Z" fill="white"/>
<path d="M1219.82 141.886H1306.64C1365.65 141.886 1395.16 164.388 1395.16 209.391C1395.16 226.822 1389.98 241.291 1379.61 252.799C1370.15 263.394 1357.11 270.572 1340.47 274.332L1402.17 399.77H1368.5L1311.76 279.288H1249.56V399.77H1219.82V141.886ZM1249.56 166.325V255.533H1302.71C1343.61 255.533 1364.06 240.266 1364.06 209.732C1364.06 194.238 1358.93 183.015 1348.68 176.066C1339.11 169.572 1324.52 166.325 1304.93 166.325H1249.56Z" fill="white"/>
<path d="M1142.84 141.886V399.77H1104.04L1023.21 243.741C1021.95 241.348 1009.71 216.283 986.465 168.546H981.167C981.167 174.471 981.452 189.225 982.022 212.809C982.363 228.075 982.534 240.95 982.534 251.431V399.77H954.165V141.886H1001.5L1075.33 286.465C1081.48 298.314 1088.26 312.385 1095.67 328.677C1104.44 348.045 1109.8 359.723 1111.73 363.711H1117.2C1115.38 314.606 1114.47 286.408 1114.47 279.117V141.886H1142.84Z" fill="white"/>
<path d="M877.863 141.886V313.638C877.863 345.539 867.894 369.464 847.956 385.415C831.778 398.289 810.7 404.726 784.724 404.726C754.418 404.726 731.005 396.352 714.485 379.604C698.991 363.882 691.243 341.893 691.243 313.638V141.886H721.663V312.613C721.663 357.16 742.911 379.433 785.408 379.433C827.904 379.433 849.152 357.16 849.152 312.613V141.886H877.863Z" fill="white"/>
<path d="M626.049 198.625L595.63 207.683C586.857 177.263 568.628 162.053 540.943 162.053C523.853 162.053 510.637 166.325 501.295 174.87C493.205 182.276 489.161 191.903 489.161 203.752C489.161 218.107 493.604 228.931 502.491 236.222C510.352 242.717 523.796 248.356 542.823 253.141L553.931 256.388C585.376 264.364 606.681 274.959 617.846 288.175C626.619 298.657 631.006 313.012 631.006 331.241C631.006 355.167 622.347 373.738 605.029 386.954C589.307 398.803 568.343 404.727 542.139 404.727C516.504 404.727 495.541 398.518 479.249 386.099C464.893 375.162 454.811 359.781 449 339.957L479.078 329.361C483.407 346.907 491.838 360.123 504.371 369.01C514.852 376.301 527.214 379.947 541.455 379.947C562.077 379.947 577.458 375.162 587.598 365.592C595.801 357.844 599.902 347.533 599.902 334.659C599.902 319.962 595.63 309.025 587.085 301.847C578.768 294.669 563.786 288.232 542.139 282.536L531.885 279.459C502.833 271.598 482.895 261.287 472.071 248.527C463.184 237.931 458.741 223.462 458.741 205.119C458.741 184.725 466.602 168.148 482.325 155.388C497.136 143.311 516.447 137.273 540.259 137.273C584.237 137.273 612.833 157.724 626.049 198.625Z" fill="white"/>
</svg>
