<svg width="345" height="70" viewBox="0 0 345 70" fill="none" xmlns="http://www.w3.org/2000/svg">
<path fill-rule="evenodd" clip-rule="evenodd" d="M56.5301 63.0547C59.5657 60.7863 62.2207 58.0369 64.3824 54.9193C59.5213 54.2689 54.0242 52.8493 47.8806 50.402C39.8797 47.2149 30.7452 47.5024 22.5481 50.5537C17.5145 52.4275 11.6779 53.8584 5.94062 53.5921C8.33498 57.4037 11.4437 60.721 15.0791 63.3564C16.4924 62.8979 17.8914 62.3705 19.262 61.7937C28.136 58.0596 38.3293 57.2513 47.5659 60.4888C50.7742 61.6134 53.7592 62.4536 56.5301 63.0547ZM51.9225 65.9687C50.0787 65.4673 48.1661 64.8734 46.184 64.1786C38.0565 61.3299 28.9421 62.0002 20.8801 65.3926C20.38 65.603 19.8715 65.8093 19.3554 66.0101C24.21 68.5583 29.7365 70 35.5997 70C41.4945 70 47.049 68.5427 51.9225 65.9687ZM49.416 46.7734C56.0596 49.4198 61.7688 50.7681 66.6116 51.2407C69.1587 46.387 70.5997 40.8618 70.5997 35H0.599609C0.599609 40.1448 1.70967 45.0304 3.70335 49.4302C9.26675 50.2844 15.3926 49.0082 21.0823 46.8902C30.1051 43.5315 40.3233 43.1513 49.416 46.7734Z" fill="#6495ED"/>
<path fill-rule="evenodd" clip-rule="evenodd" d="M0.599609 35C0.599609 15.67 16.2697 0 35.5997 0C54.9297 0 70.5997 15.67 70.5997 35H54.4999C54.4999 24.5619 46.0381 16.1001 35.5999 16.1001C25.1617 16.1001 16.6999 24.5619 16.6999 35H0.599609Z" fill="#EDBC64"/>
<path d="M343.98 12.4049V16.891H320.892V31.3362H338.358V35.8223H320.892V53.0488H344.399V57.5349H315.568V12.4049H343.98Z" fill="#181818"/>
<path d="M304.041 22.3342L298.717 23.9193C297.182 18.5958 293.992 15.9341 289.147 15.9341C286.156 15.9341 283.843 16.6818 282.208 18.1771C280.793 19.4731 280.085 21.1579 280.085 23.2314C280.085 25.7437 280.862 27.6378 282.418 28.9138C283.793 30.0503 286.146 31.0372 289.476 31.8746L291.42 32.4429C296.923 33.8385 300.651 35.6928 302.605 38.0056C304.14 39.8399 304.908 42.3521 304.908 45.5422C304.908 49.7292 303.393 52.9792 300.362 55.292C297.611 57.3656 293.942 58.4023 289.356 58.4023C284.87 58.4023 281.201 57.3157 278.35 55.1425C275.838 53.2284 274.073 50.5367 273.057 47.0675L278.32 45.2133C279.078 48.2837 280.553 50.5966 282.747 52.1517C284.581 53.4278 286.744 54.0658 289.236 54.0658C292.845 54.0658 295.537 53.2284 297.311 51.5536C298.747 50.1978 299.465 48.3934 299.465 46.1404C299.465 43.5684 298.717 41.6543 297.222 40.3982C295.766 39.1421 293.144 38.0156 289.356 37.0187L287.562 36.4803C282.477 35.1046 278.988 33.3002 277.094 31.0671C275.539 29.2129 274.761 26.6807 274.761 23.4707C274.761 19.9018 276.137 17.0008 278.889 14.7677C281.481 12.6543 284.86 11.5975 289.027 11.5975C296.723 11.5975 301.728 15.1764 304.041 22.3342Z" fill="#181818"/>
<path d="M263.023 12.4049V57.5349H257.699V12.4049H263.023Z" fill="#181818"/>
<path d="M215.994 12.4049H231.187C241.515 12.4049 246.679 16.3427 246.679 24.2183C246.679 27.2688 245.772 29.8009 243.957 31.8147C242.303 33.6689 240.02 34.925 237.109 35.583L247.905 57.5349H242.013L232.084 36.4503H221.198V57.5349H215.994V12.4049ZM221.198 16.6816V32.2932H230.499C237.657 32.2932 241.236 29.6215 241.236 24.2781C241.236 21.5665 240.339 19.6026 238.544 18.3864C236.869 17.2499 234.317 16.6816 230.888 16.6816H221.198Z" fill="#181818"/>
<path d="M202.523 12.405V57.535H195.735L181.588 30.2297C181.369 29.811 179.226 25.4246 175.158 17.0706H174.231C174.231 18.1073 174.281 20.6893 174.381 24.8165C174.441 27.4882 174.47 29.7413 174.47 31.5756V57.535H169.506V12.405H177.79L190.71 37.7065C191.787 39.7801 192.973 42.2425 194.269 45.0936C195.804 48.4831 196.741 50.5268 197.08 51.2246H198.037C197.718 42.6313 197.559 37.6966 197.559 36.4205V12.405H202.523Z" fill="#181818"/>
<path d="M156.151 12.4049V42.4617C156.151 48.0444 154.406 52.2314 150.917 55.0227C148.086 57.2757 144.397 58.4022 139.851 58.4022C134.548 58.4022 130.451 56.9368 127.56 54.0059C124.848 51.2544 123.492 47.4063 123.492 42.4617V12.4049H128.816V42.2822C128.816 50.078 132.534 53.976 139.971 53.976C147.408 53.976 151.126 50.078 151.126 42.2822V12.4049H156.151Z" fill="#181818"/>
<path d="M112.084 22.3342L106.76 23.9193C105.225 18.5958 102.035 15.9341 97.1897 15.9341C94.199 15.9341 91.8862 16.6818 90.2512 18.1771C88.8356 19.4731 88.1278 21.1579 88.1278 23.2314C88.1278 25.7437 88.9054 27.6378 90.4606 28.9138C91.8363 30.0503 94.189 31.0372 97.5187 31.8746L99.4627 32.4429C104.966 33.8385 108.694 35.6928 110.648 38.0056C112.183 39.8399 112.951 42.3521 112.951 45.5422C112.951 49.7292 111.436 52.9792 108.405 55.292C105.653 57.3656 101.985 58.4023 97.3991 58.4023C92.913 58.4023 89.2444 57.3157 86.3932 55.1425C83.881 53.2284 82.1165 50.5367 81.0996 47.0675L86.3633 45.2133C87.1209 48.2837 88.5964 50.5966 90.7896 52.1517C92.6239 53.4278 94.7872 54.0658 97.2794 54.0658C100.888 54.0658 103.58 53.2284 105.354 51.5536C106.79 50.1978 107.508 48.3934 107.508 46.1404C107.508 43.5684 106.76 41.6543 105.265 40.3982C103.809 39.1421 101.187 38.0156 97.3991 37.0187L95.6046 36.4803C90.5204 35.1046 87.0312 33.3002 85.1371 31.0671C83.5819 29.2129 82.8043 26.6807 82.8043 23.4707C82.8043 19.9018 84.1801 17.0008 86.9315 14.7677C89.5235 12.6543 92.903 11.5975 97.0701 11.5975C104.766 11.5975 109.771 15.1764 112.084 22.3342Z" fill="#181818"/>
</svg>
